<svg xmlns="http://www.w3.org/2000/svg" width="32.748" height="32.776" viewBox="0 0 32.748 32.776">
  <path id="profile" d="M18.393,2A16.405,16.405,0,0,0,6.335,29.495h0a16.405,16.405,0,0,0,24.115,0h0A16.405,16.405,0,0,0,18.393,2Zm0,29.529a13.124,13.124,0,0,1-9.1-3.691,9.843,9.843,0,0,1,18.21,0A13.124,13.124,0,0,1,18.393,31.529ZM15.112,15.124a3.281,3.281,0,1,1,3.281,3.281A3.281,3.281,0,0,1,15.112,15.124Zm14.617,9.843a13.124,13.124,0,0,0-6.414-5.545,6.562,6.562,0,1,0-9.843,0,13.124,13.124,0,0,0-6.414,5.545,12.993,12.993,0,0,1-1.788-6.562,13.124,13.124,0,1,1,26.248,0A12.993,12.993,0,0,1,29.729,24.967Z" transform="translate(-2.019 -2)" fill="#0d242e"/>
</svg>
